{
  "source": "C:\\Users\\Peter\\Desktop\\stuff\\MIUN\\quantitative_research\\video_compression\\videos\\UVG\\Beauty_1920x1080_120fps_420_8bit_YUV.y4m",
  "output": "C:\\Users\\Peter\\Desktop\\stuff\\MIUN\\quantitative_research\\video_compression\\compressed_videos\\UVG\\vp9\\1\\Beauty_1920x1080_120fps_420_8bit_YUV_vp9.webm",
  "codec": "vp9",
  "ok": "[yuv4mpegpipe @ 00000237be325280] Stream #0: not enough frames to estimate rate; consider increasing probesize\nInput #0, yuv4mpegpipe, from 'C:\\Users\\Peter\\Desktop\\stuff\\MIUN\\quantitative_research\\video_compression\\videos\\UVG\\Beauty_1920x1080_120fps_420_8bit_YUV.y4m':\n  Duration: 00:00:05.00, start: 0.000000, bitrate: 2985989 kb/s\n  Stream #0:0: Video: rawvideo (I420 / 0x30323449), yuv420p(progressive), 1920x1080, 120 fps, 120 tbr, 120 tbn\n[out#0/webm @ 00000237be329b00] Codec AVOption b:a (set bitrate (in bits/s)) has not been used for any stream. The most likely reason is either wrong type (e.g. a video option with no video streams) or that it is a private option of some decoder which was not actually used for any stream.\nStream mapping:\n  Stream #0:0 -> #0:0 (rawvideo (native) -> vp9 (libvpx-vp9))\nPress [q] to stop, [?] for help\n[libvpx-vp9 @ 00000237be32c000] v1.15.2-100-g40561f514\nOutput #0, webm, to 'C:\\Users\\Peter\\Desktop\\stuff\\MIUN\\quantitative_research\\video_compression\\compressed_videos\\UVG\\vp9\\1\\Beauty_1920x1080_120fps_420_8bit_YUV_vp9.webm':\n  Metadata:\n    encoder         : Lavf62.3.100\n  Stream #0:0: Video: vp9, yuv420p(tv, progressive), 1920x1080, q=2-31, 1000 kb/s, 120 fps, 1k tbn\n    Metadata:\n      encoder         : Lavc62.11.100 libvpx-vp9\n    Side data:\n      cpb: bitrate max/min/avg: 0/0/0 buffer size: 1000000 vbv_delay: N/A\nframe=    9 fps=0.0 q=60.0 size=       0KiB time=00:00:00.07 bitrate=  51.3kbits/s speed=0.146x elapsed=0:00:00.51    \nframe=   21 fps= 20 q=60.0 size=       0KiB time=00:00:00.17 bitrate=  22.0kbits/s speed=0.17x elapsed=0:00:01.02    \nframe=   32 fps= 21 q=61.0 size=       0KiB time=00:00:00.26 bitrate=  14.4kbits/s speed=0.172x elapsed=0:00:01.55    \nframe=   43 fps= 21 q=59.0 size=       0KiB time=00:00:00.35 bitrate=  10.7kbits/s speed=0.174x elapsed=0:00:02.06    \nframe=   53 fps= 21 q=61.0 size=       0KiB time=00:00:00.44 bitrate=   8.7kbits/s speed=0.172x elapsed=0:00:02.57    \nframe=   65 fps= 21 q=59.0 size=       0KiB time=00:00:00.54 bitrate=   7.1kbits/s speed=0.175x elapsed=0:00:03.08    \nframe=   76 fps= 21 q=44.0 size=       0KiB time=00:00:00.63 bitrate=   6.1kbits/s speed=0.176x elapsed=0:00:03.60    \nframe=   89 fps= 22 q=61.0 size=       0KiB time=00:00:00.74 bitrate=   5.2kbits/s speed=0.18x elapsed=0:00:04.12    \nframe=  102 fps= 22 q=61.0 size=       0KiB time=00:00:00.85 bitrate=   4.5kbits/s speed=0.183x elapsed=0:00:04.63    \nframe=  115 fps= 22 q=63.0 size=       0KiB time=00:00:00.95 bitrate=   4.0kbits/s speed=0.186x elapsed=0:00:05.15    \nframe=  127 fps= 22 q=61.0 size=       0KiB time=00:00:01.05 bitrate=   3.6kbits/s speed=0.186x elapsed=0:00:05.67    \nframe=  140 fps= 23 q=61.0 size=     114KiB time=00:00:01.16 bitrate= 797.1kbits/s speed=0.189x elapsed=0:00:06.18    \nframe=  153 fps= 23 q=59.0 size=     114KiB time=00:00:01.27 bitrate= 729.3kbits/s speed=0.19x elapsed=0:00:06.70    \nframe=  164 fps= 23 q=59.0 size=     114KiB time=00:00:01.36 bitrate= 680.4kbits/s speed=0.189x elapsed=0:00:07.22    \nframe=  176 fps= 23 q=59.0 size=     114KiB time=00:00:01.46 bitrate= 634.0kbits/s speed=0.19x elapsed=0:00:07.73    \nframe=  188 fps= 23 q=59.0 size=     114KiB time=00:00:01.56 bitrate= 593.6kbits/s speed=0.19x elapsed=0:00:08.25    \nframe=  201 fps= 23 q=60.0 size=     114KiB time=00:00:01.67 bitrate= 555.2kbits/s speed=0.191x elapsed=0:00:08.76    \nframe=  213 fps= 23 q=62.0 size=     114KiB time=00:00:01.77 bitrate= 523.9kbits/s speed=0.191x elapsed=0:00:09.27    \nframe=  224 fps= 23 q=61.0 size=     114KiB time=00:00:01.86 bitrate= 498.2kbits/s speed=0.191x elapsed=0:00:09.79    \nframe=  237 fps= 23 q=61.0 size=     114KiB time=00:00:01.97 bitrate= 470.8kbits/s speed=0.192x elapsed=0:00:10.30    \nframe=  250 fps= 23 q=59.0 size=     114KiB time=00:00:02.08 bitrate= 446.4kbits/s speed=0.192x elapsed=0:00:10.83    \nframe=  263 fps= 23 q=58.0 size=     245KiB time=00:00:02.19 bitrate= 916.0kbits/s speed=0.193x elapsed=0:00:11.33    \nframe=  276 fps= 23 q=63.0 size=     245KiB time=00:00:02.30 bitrate= 872.9kbits/s speed=0.194x elapsed=0:00:11.86    \nframe=  288 fps= 23 q=62.0 size=     245KiB time=00:00:02.40 bitrate= 836.5kbits/s speed=0.194x elapsed=0:00:12.37    \nframe=  301 fps= 23 q=60.0 size=     245KiB time=00:00:02.50 bitrate= 800.4kbits/s speed=0.195x elapsed=0:00:12.89    \nframe=  316 fps= 24 q=61.0 size=     245KiB time=00:00:02.63 bitrate= 762.4kbits/s speed=0.196x elapsed=0:00:13.40    \nframe=  330 fps= 24 q=61.0 size=     245KiB time=00:00:02.75 bitrate= 730.0kbits/s speed=0.198x elapsed=0:00:13.91    \nframe=  344 fps= 24 q=60.0 size=     245KiB time=00:00:02.86 bitrate= 700.3kbits/s speed=0.198x elapsed=0:00:14.44    \nframe=  357 fps= 24 q=61.0 size=     245KiB time=00:00:02.97 bitrate= 674.8kbits/s speed=0.199x elapsed=0:00:14.95    \nframe=  371 fps= 24 q=61.0 size=     245KiB time=00:00:03.09 bitrate= 649.4kbits/s speed= 0.2x elapsed=0:00:15.47    \nframe=  384 fps= 24 q=62.0 size=     245KiB time=00:00:03.20 bitrate= 627.4kbits/s speed= 0.2x elapsed=0:00:15.98    \nframe=  398 fps= 24 q=62.0 size=     256KiB time=00:00:03.31 bitrate= 632.3kbits/s speed=0.201x elapsed=0:00:16.50    \nframe=  411 fps= 24 q=60.0 size=     256KiB time=00:00:03.42 bitrate= 612.3kbits/s speed=0.201x elapsed=0:00:17.01    \nframe=  423 fps= 24 q=61.0 size=     256KiB time=00:00:03.52 bitrate= 594.9kbits/s speed=0.201x elapsed=0:00:17.52    \nframe=  436 fps= 24 q=61.0 size=     256KiB time=00:00:03.63 bitrate= 577.2kbits/s speed=0.201x elapsed=0:00:18.04    \nframe=  448 fps= 24 q=60.0 size=     256KiB time=00:00:03.73 bitrate= 561.7kbits/s speed=0.201x elapsed=0:00:18.56    \nframe=  461 fps= 24 q=59.0 size=     256KiB time=00:00:03.84 bitrate= 545.9kbits/s speed=0.201x elapsed=0:00:19.07    \nframe=  474 fps= 24 q=58.0 size=     256KiB time=00:00:03.95 bitrate= 530.9kbits/s speed=0.202x elapsed=0:00:19.59    \nframe=  486 fps= 24 q=60.0 size=     256KiB time=00:00:04.05 bitrate= 517.8kbits/s speed=0.201x elapsed=0:00:20.10    \nframe=  498 fps= 24 q=60.0 size=     256KiB time=00:00:04.15 bitrate= 505.3kbits/s speed=0.201x elapsed=0:00:20.62    \nframe=  509 fps= 24 q=58.0 size=     256KiB time=00:00:04.24 bitrate= 494.4kbits/s speed=0.201x elapsed=0:00:21.13    \nframe=  522 fps= 24 q=59.0 size=     512KiB time=00:00:04.35 bitrate= 964.2kbits/s speed=0.201x elapsed=0:00:21.65    \nframe=  534 fps= 24 q=60.0 size=     512KiB time=00:00:04.45 bitrate= 942.5kbits/s speed=0.201x elapsed=0:00:22.17    \nframe=  546 fps= 24 q=59.0 size=     512KiB time=00:00:04.55 bitrate= 921.8kbits/s speed= 0.2x elapsed=0:00:22.69    \nframe=  559 fps= 24 q=60.0 size=     512KiB time=00:00:04.65 bitrate= 900.4kbits/s speed=0.201x elapsed=0:00:23.20    \nframe=  572 fps= 24 q=60.0 size=     512KiB time=00:00:04.76 bitrate= 879.9kbits/s speed=0.201x elapsed=0:00:23.72    \nframe=  576 fps= 24 q=60.0 size=     512KiB time=00:00:04.80 bitrate= 873.8kbits/s speed=0.198x elapsed=0:00:24.22    \nframe=  576 fps= 23 q=60.0 size=     512KiB time=00:00:04.80 bitrate= 873.8kbits/s speed=0.194x elapsed=0:00:24.74    \n[out#0/webm @ 00000237be329b00] video:613KiB audio:0KiB subtitle:0KiB other streams:0KiB global headers:0KiB muxing overhead: 0.769683%\nframe=  600 fps= 24 q=60.0 Lsize=     618KiB time=00:00:05.00 bitrate=1012.4kbits/s speed=0.202x elapsed=0:00:24.80    \n",
  "seconds": 24.891141176223755,
  "probe_out": {}
}